<?xml version="1.0" standalone="no"?>
<!DOCTYPE svg PUBLIC "-//W3C//DTD SVG 20010904//EN"
 "http://www.w3.org/TR/2001/REC-SVG-20010904/DTD/svg10.dtd">
<svg version="1.0" xmlns="http://www.w3.org/2000/svg"
 width="382.000000pt" height="382.000000pt" viewBox="0 0 382.000000 382.000000"
 preserveAspectRatio="xMidYMid meet">
<metadata>
Created by potrace 1.14, written by Peter Selinger 2001-2017
</metadata>
<g transform="translate(0.000000,382.000000) scale(0.100000,-0.100000)"
fill="#000000" stroke="none">
<path d="M1189 3596 c-2 -2 -60 -7 -129 -10 -69 -4 -141 -9 -160 -12 -304 -41
-434 -102 -544 -257 -46 -66 -78 -123 -231 -422 -54 -104 -101 -194 -106 -199
-5 -6 -9 -18 -9 -28 0 -15 8 -18 48 -18 43 0 50 3 61 28 36 77 151 235 230
312 98 97 184 148 308 182 70 19 101 21 317 20 131 -1 240 -3 243 -5 2 -2 -3
-42 -11 -88 -8 -46 -17 -104 -21 -129 -3 -25 -8 -52 -10 -60 -2 -8 -6 -33 -9
-55 -3 -22 -14 -103 -25 -180 -11 -77 -23 -162 -26 -190 -42 -326 -117 -678
-202 -940 -87 -270 -170 -457 -396 -897 -67 -130 -63 -262 11 -349 50 -59 100
-79 195 -79 210 0 308 136 431 600 44 166 119 551 140 716 2 17 9 66 15 110
18 123 19 128 40 324 25 220 28 255 36 340 3 36 8 83 10 105 7 66 14 155 20
240 3 44 7 103 10 130 2 28 7 95 11 150 4 55 8 116 9 135 1 19 3 54 4 78 l1
42 506 0 506 0 -6 -97 c-4 -54 -8 -120 -11 -148 -2 -27 -7 -104 -10 -170 -3
-66 -8 -136 -10 -155 -2 -19 -7 -89 -10 -155 -4 -66 -8 -140 -10 -165 -2 -25
-6 -94 -10 -155 -3 -60 -8 -126 -10 -145 -2 -19 -7 -91 -10 -160 -4 -69 -8
-138 -10 -155 -2 -16 -7 -91 -10 -165 -4 -74 -9 -142 -10 -150 -8 -40 -20
-310 -20 -425 1 -141 12 -218 51 -336 49 -152 147 -274 266 -334 90 -45 163
-59 268 -52 369 25 724 357 878 822 l30 90 -40 3 c-56 4 -64 0 -92 -56 -54
-107 -172 -270 -255 -352 -126 -126 -231 -177 -343 -168 -239 20 -413 358
-412 803 0 94 13 329 19 355 2 8 7 71 10 140 4 69 9 132 10 140 2 9 6 67 10
130 3 63 8 131 10 150 2 19 7 78 10 130 6 99 12 177 20 270 2 30 7 91 10 135
17 248 26 359 31 364 2 2 131 5 286 7 263 4 687 12 716 13 9 1 12 48 12 201
l0 200 -1314 0 c-722 0 -1315 -2 -1317 -4z"/>
</g>
</svg>
